<svg width="30" height="30" viewBox="0 0 30 30" fill="none" xmlns="http://www.w3.org/2000/svg">
<g clip-path="url(#clip0_2_3068)">
<path d="M15 30C17.049 30 18.978 29.608 20.7867 28.8241C22.5956 28.0401 24.1912 26.9573 25.5735 25.5757C26.9559 24.194 28.0392 22.5992 28.8235 20.7913C29.6078 18.9833 30 17.0553 30 15.0073C30 12.9593 29.6078 11.0313 28.8235 9.22339C28.0392 7.41545 26.9559 5.82064 25.5735 4.43896C24.1912 3.05729 22.5931 1.97448 20.7793 1.19055C18.9657 0.406614 17.0343 0.0146484 14.9853 0.0146484C12.9363 0.0146484 11.0073 0.406614 9.19852 1.19055C7.3897 1.97448 5.79656 3.05729 4.41911 4.43896C3.04166 5.82064 1.96078 7.41545 1.17647 9.22339C0.392156 11.0313 0 12.9593 0 15.0073C0 17.0553 0.392156 18.9833 1.17647 20.7913C1.96078 22.5992 3.04411 24.194 4.42646 25.5757C5.80882 26.9573 7.4044 28.0401 9.21322 28.8241C11.022 29.608 12.951 30 15 30Z" fill="black" fill-opacity="0.85"/>
<path d="M8.49999 21.1661C7.71568 21.1661 7.12499 20.9677 6.72793 20.5708C6.33088 20.174 6.13235 19.5934 6.13235 18.8291V14.6693C6.13235 14.3263 6.16421 14.0568 6.22793 13.8609C6.29166 13.6649 6.40686 13.4591 6.57352 13.2435L9.23528 9.62762C9.5196 9.22586 9.78431 8.91964 10.0294 8.70896C10.2745 8.49828 10.5466 8.35129 10.8456 8.26799C11.1446 8.18471 11.5147 8.14307 11.9559 8.14307H18.0736C18.5147 8.14307 18.8823 8.18471 19.1765 8.26799C19.4705 8.35129 19.7401 8.49828 19.9853 8.70896C20.2304 8.91964 20.5 9.22586 20.7941 9.62762L23.4559 13.2435C23.6127 13.4591 23.7254 13.6649 23.7941 13.8609C23.8627 14.0568 23.897 14.3263 23.897 14.6693V18.8291C23.897 19.5934 23.7009 20.174 23.3088 20.5708C22.9166 20.9677 22.3235 21.1661 21.5294 21.1661H8.49999ZM8.2647 14.1842H12.6176C12.8137 14.1842 12.9632 14.2479 13.0662 14.3753C13.1691 14.5027 13.2206 14.6399 13.2206 14.7869V14.978C13.2206 15.5071 13.3823 15.9235 13.7059 16.2273C14.0294 16.5311 14.4657 16.683 15.0147 16.683C15.5637 16.683 16.0024 16.5311 16.3308 16.2273C16.6593 15.9235 16.8235 15.5071 16.8235 14.978V14.7869C16.8235 14.6399 16.8701 14.5027 16.9631 14.3753C17.0563 14.2479 17.2058 14.1842 17.4117 14.1842H21.7646C21.8823 14.1842 21.9558 14.1401 21.9853 14.0519C22.0147 13.9638 22.0049 13.8854 21.9559 13.8168L19.3235 10.245C19.1764 10.0392 19.0147 9.88976 18.8383 9.79667C18.6618 9.70358 18.4412 9.65703 18.1764 9.65703H11.8676C11.6029 9.65703 11.3799 9.70358 11.1985 9.79667C11.0171 9.88976 10.8529 10.0392 10.7059 10.245L8.08822 13.8168C8.0294 13.905 8.0147 13.9882 8.04412 14.0666C8.07352 14.145 8.14705 14.1842 8.2647 14.1842Z" fill="white"/>
</g>
<defs>
<clipPath id="clip0_2_3068">
<rect width="30" height="30" fill="white"/>
</clipPath>
</defs>
</svg>
