<svg width="18" height="12" viewBox="0 0 18 12" fill="none" xmlns="http://www.w3.org/2000/svg">
<path fill-rule="evenodd" clip-rule="evenodd" d="M16.3391 11.3338H15.3392C14.7878 11.3338 14.3393 10.8852 14.3393 10.3339V1.66689C14.3393 1.11554 14.7878 0.666992 15.3392 0.666992H16.3391C16.8904 0.666992 17.339 1.11554 17.339 1.66689V10.3339C17.339 10.8852 16.8904 11.3338 16.3391 11.3338ZM11.6726 11.3338H10.6718C10.1204 11.3338 9.67187 10.8852 9.67187 10.3339V4.00059C9.67187 3.44924 10.1204 3.00069 10.6718 3.00069H11.6726C12.2239 3.00069 12.6725 3.44924 12.6725 4.00059V10.3339C12.6725 10.8852 12.2239 11.3338 11.6726 11.3338ZM7.00517 11.3338H6.00527C5.45392 11.3338 5.00537 10.8852 5.00537 10.3339V6.33339C5.00537 5.78204 5.45392 5.33349 6.00527 5.33349H7.00517C7.55701 5.33349 8.00597 5.78204 8.00597 6.33339V10.3339C8.00597 10.8852 7.55701 11.3338 7.00517 11.3338ZM2.33867 11.3338H1.33877C0.787417 11.3338 0.338867 10.8852 0.338867 10.3339V8.33409C0.338867 7.78225 0.787417 7.33329 1.33877 7.33329H2.33867C2.89002 7.33329 3.33857 7.78225 3.33857 8.33409V10.3339C3.33857 10.8852 2.89002 11.3338 2.33867 11.3338Z" fill="black"/>
</svg>
