<svg width="19" height="20" viewBox="0 0 19 20" fill="none" xmlns="http://www.w3.org/2000/svg">
<g clip-path="url(#clip0_2_3812)">
<path d="M1.42618 19.5998C1.63451 19.5998 1.81029 19.5282 1.95352 19.385C2.09675 19.2418 2.16837 19.0692 2.16837 18.8674V13.4377C2.29206 13.3857 2.57689 13.2962 3.02286 13.1692C3.46882 13.0422 4.04987 12.9787 4.76602 12.9787C5.67097 12.9787 6.50593 13.0683 7.2709 13.2473C8.03588 13.4263 8.77644 13.6314 9.49258 13.8625C10.2087 14.0937 10.9379 14.2988 11.6801 14.4778C12.4223 14.6568 13.2231 14.7463 14.0824 14.7463C14.5903 14.7463 15.0069 14.7284 15.3324 14.6926C15.6579 14.6568 15.9411 14.6015 16.182 14.5266C16.4229 14.4518 16.6671 14.359 16.9145 14.2483C17.253 14.0986 17.5232 13.8886 17.725 13.6184C17.9269 13.3482 18.0278 12.9885 18.0278 12.5393V2.6272C18.0278 2.36027 17.9301 2.15519 17.7348 2.01196C17.5395 1.86874 17.2986 1.79712 17.0121 1.79712C16.7712 1.79712 16.4115 1.86548 15.933 2.0022C15.4545 2.13892 14.7953 2.20727 13.9555 2.20727C13.0961 2.20727 12.2953 2.11775 11.5531 1.93872C10.8109 1.75968 10.0818 1.55298 9.36563 1.3186C8.64948 1.08423 7.90892 0.87915 7.14395 0.70337C6.37898 0.527588 5.54402 0.439697 4.63907 0.439697C4.13126 0.439697 3.71296 0.457601 3.38419 0.493408C3.05541 0.529216 2.77058 0.584554 2.52969 0.659424C2.28881 0.734294 2.04467 0.827067 1.79727 0.937744C1.46524 1.08748 1.19669 1.29745 0.991607 1.56763C0.786529 1.83781 0.68399 2.19425 0.68399 2.63696V18.8674C0.68399 19.0628 0.757233 19.2337 0.903717 19.3801C1.0502 19.5266 1.22436 19.5998 1.42618 19.5998Z" fill="#FF9500"/>
</g>
<defs>
<clipPath id="clip0_2_3812">
<rect width="17.3438" height="19.1699" fill="white" transform="translate(0.68399 0.429932)"/>
</clipPath>
</defs>
</svg>
