<svg width="16" height="12" viewBox="0 0 16 12" fill="none" xmlns="http://www.w3.org/2000/svg">
<path fill-rule="evenodd" clip-rule="evenodd" d="M8.00599 11.3309C7.92274 11.3309 7.84172 11.2971 7.78369 11.2382L5.77759 9.21585C5.71543 9.1555 5.68131 9.07119 5.68399 8.98455C5.68579 8.89818 5.72351 8.81551 5.78749 8.75775C6.4069 8.2341 7.19477 7.94573 8.00599 7.94573C8.81722 7.94573 9.60509 8.23411 10.2245 8.75775C10.2885 8.81551 10.3262 8.89817 10.328 8.98455C10.3298 9.07148 10.2953 9.15579 10.2335 9.21585L8.22829 11.2382C8.17026 11.2971 8.08924 11.3309 8.00599 11.3309ZM11.5286 7.78215C11.4486 7.78215 11.3722 7.75179 11.3135 7.69665C10.4049 6.87543 9.23028 6.42315 8.00598 6.42315C6.78252 6.42405 5.60886 6.87632 4.70118 7.69665C4.64243 7.75178 4.56603 7.78215 4.48608 7.78215C4.40309 7.78215 4.3251 7.74987 4.26648 7.69125L3.10728 6.52035C3.04544 6.4585 3.01188 6.37668 3.01278 6.28995C3.01367 6.2022 3.04883 6.1207 3.11178 6.06045C4.44566 4.82019 6.18411 4.13715 8.00689 4.13715C9.82935 4.13715 11.5681 4.82019 12.9029 6.06045C12.9658 6.1216 13.001 6.2031 13.0019 6.28995C13.0028 6.37668 12.9692 6.4585 12.9074 6.52035L11.7482 7.69125C11.6896 7.74987 11.6116 7.78215 11.5286 7.78215ZM14.198 5.08935C14.1171 5.08935 14.0407 5.05803 13.9829 5.00115C12.3633 3.46258 10.2407 2.61525 8.00598 2.61525C5.77069 2.61525 3.64773 3.46258 2.02819 5.00116C1.97042 5.05802 1.89401 5.08935 1.81308 5.08935C1.72977 5.08935 1.65178 5.05675 1.59348 4.99755L0.432485 3.82755C0.371225 3.76539 0.337985 3.68388 0.338885 3.59805C0.339785 3.51151 0.373985 3.43064 0.435185 3.37035C2.48239 1.41042 5.17108 0.331055 8.00598 0.331055C10.8412 0.331055 13.5296 1.41043 15.5759 3.37035C15.6371 3.43064 15.6713 3.51151 15.6722 3.59805C15.6731 3.68388 15.6398 3.76539 15.5786 3.82755L14.4176 4.99755C14.3593 5.05675 14.2813 5.08935 14.198 5.08935Z" fill="black"/>
</svg>
