<svg width="31" height="31" viewBox="0 0 31 31" fill="none" xmlns="http://www.w3.org/2000/svg">
<g clip-path="url(#clip0_2_3820)">
<path d="M15.1546 30.4299C17.2036 30.4299 19.1325 30.038 20.9413 29.2541C22.7502 28.4701 24.3457 27.3873 25.728 26.0057C27.1104 24.624 28.1938 23.0292 28.978 21.2213C29.7624 19.4133 30.1546 17.4853 30.1546 15.4373C30.1546 13.3893 29.7624 11.4613 28.978 9.65337C28.1938 7.84542 27.1104 6.25061 25.728 4.86894C24.3457 3.48726 22.7477 2.40446 20.9339 1.62052C19.1202 0.836591 17.1889 0.444626 15.1398 0.444626C13.0908 0.444626 11.1619 0.836591 9.35309 1.62052C7.54427 2.40446 5.95113 3.48726 4.57368 4.86894C3.19623 6.25061 2.11535 7.84542 1.33104 9.65337C0.546728 11.4613 0.154572 13.3893 0.154572 15.4373C0.154572 17.4853 0.546728 19.4133 1.33104 21.2213C2.11535 23.0292 3.19868 24.624 4.58103 26.0057C5.96339 27.3873 7.55898 28.4701 9.36779 29.2541C11.1766 30.038 13.1055 30.4299 15.1546 30.4299Z" fill="#FF9500"/>
<path d="M9.38984 23.5805C9.19377 23.5805 9.02465 23.5094 8.8825 23.3673C8.74034 23.2252 8.66927 23.0611 8.66927 22.8748V10.1605C8.66927 9.50393 8.98299 9.03357 9.61044 8.74939C9.87514 8.622 10.1595 8.52646 10.4634 8.46276C10.7673 8.39908 11.2134 8.36723 11.8016 8.36723C12.7134 8.36723 13.5369 8.47992 14.2722 8.7053C15.0075 8.93069 15.7354 9.15607 16.456 9.38145C17.1766 9.60683 17.9683 9.71952 18.8309 9.71952C19.4487 9.71952 19.9389 9.66562 20.3016 9.55782C20.6643 9.45003 20.9584 9.39614 21.1839 9.39614C21.7525 9.39614 22.0368 9.65091 22.0368 10.1605V17.6274C22.0368 18.284 21.7231 18.7592 21.0956 19.0531C20.8212 19.1806 20.532 19.2761 20.2281 19.3399C19.9241 19.4036 19.4829 19.4354 18.9046 19.4354C18.0222 19.4354 17.2208 19.3251 16.5001 19.1046C15.7795 18.8841 15.054 18.6637 14.3237 18.4432C13.5933 18.2227 12.7771 18.1124 11.8751 18.1124C11.4144 18.1124 11.032 18.1467 10.7281 18.2154C10.4242 18.284 10.2036 18.3477 10.0663 18.4065V22.8748C10.0663 23.0708 10.0026 23.2374 9.87514 23.3745C9.74769 23.5118 9.58592 23.5805 9.38984 23.5805Z" fill="white"/>
</g>
<defs>
<clipPath id="clip0_2_3820">
<rect width="30" height="30" fill="white" transform="translate(0.154572 0.429932)"/>
</clipPath>
</defs>
</svg>
